PathFileType        4      (X/Y/Z)      C:\Users\pc\Desktop\IMUTRC\Sujet_02\Sujet_02_velo_100.trc         
DataRate	CameraRate	NumFrames	NumMarkers	Units	OrigDataRate	OrigDataStartFrame	OrigNumFrames
60.0	60.0	4	64	mm	60.0	708	943
Frame#	Time	pHipOrigin			pRightASI			pLeftASI			pRightCSI			pLeftCSI			pRightIschialTub			pLeftIschialTub			pSacrum			pL5SpinalProcess			pL3SpinalProcess			pT12SpinalProcess			pIJ			pT4SpinalProcess			pT8SpinalProcess			pPX			pC7SpinalProcess			pTopOfHead			pRightAuricularis			pLeftAuricularis			pBackOfHead			pRightAcromion			pLeftAcromion			pRightArmLatEpicondyle			pRightArmMedEpicondyle			pLeftArmLatEpicondyle			pLeftArmMedEpicondyle			pRightUlnarStyloid			pRightRadialStyloid			pRightOlecranon			pLeftUlnarStyloid			pLeftRadialStyloid			pLeftOlecranon			pRightTopOfHand			pRightPinky			pRightBallHand			pLeftTopOfHand			pLeftPinky			pLeftBallHand			pRightGreaterTrochanter			pRightKneeLatEpicondyle			pRightKneeMedEpicondyle			pRightPatella			pLeftGreaterTrochanter			pLeftKneeLatEpicondyle			pLeftKneeMedEpicondyle			pLeftPatella			pRightTibialTub			pRightLatMalleolus			pRightMedMalleolus			pLeftTibialTub			pLeftLatMalleolus			pLeftMedMalleolus			pRightHeelFoot			pRightFirstMetatarsal			pRightFifthMetatarsal			pRightPivotFoot			pRightHeelCenter			pRightToe			pLeftHeelFoot			pLeftFirstMetatarsal			pLeftFifthMetatarsal			pLeftPivotFoot			pLeftHeelCenter			pLeftToe			
		X1	Y1	Z1	X2	Y2	Z2	X3	Y3	Z3	X4	Y4	Z4	X5	Y5	Z5	X6	Y6	Z6	X7	Y7	Z7	X8	Y8	Z8	X9	Y9	Z9	X10	Y10	Z10	X11	Y11	Z11	X12	Y12	Z12	X13	Y13	Z13	X14	Y14	Z14	X15	Y15	Z15	X16	Y16	Z16	X17	Y17	Z17	X18	Y18	Z18	X19	Y19	Z19	X20	Y20	Z20	X21	Y21	Z21	X22	Y22	Z22	X23	Y23	Z23	X24	Y24	Z24	X25	Y25	Z25	X26	Y26	Z26	X27	Y27	Z27	X28	Y28	Z28	X29	Y29	Z29	X30	Y30	Z30	X31	Y31	Z31	X32	Y32	Z32	X33	Y33	Z33	X34	Y34	Z34	X35	Y35	Z35	X36	Y36	Z36	X37	Y37	Z37	X38	Y38	Z38	X39	Y39	Z39	X40	Y40	Z40	X41	Y41	Z41	X42	Y42	Z42	X43	Y43	Z43	X44	Y44	Z44	X45	Y45	Z45	X46	Y46	Z46	X47	Y47	Z47	X48	Y48	Z48	X49	Y49	Z49	X50	Y50	Z50	X51	Y51	Z51	X52	Y52	Z52	X53	Y53	Z53	X54	Y54	Z54	X55	Y55	Z55	X56	Y56	Z56	X57	Y57	Z57	X58	Y58	Z58	X59	Y59	Z59	X60	Y60	Z60	X61	Y61	Z61	X62	Y62	Z62	X63	Y63	Z63	X64	Y64	Z64	
708	11.783	0.0	1250.00218	7.654055843321067E-14	78.14997000000001	1366.74473	131.6120300000001	33.711749999999995	1360.55856	-153.9162699999999	18.501730000000006	1430.59274	113.11030000000008	-17.934200000000008	1425.4849	-120.88556999999992	-41.08973999999999	1183.77051	67.76402000000007	-59.25095	1181.27335	-49.26228999999992	-72.53134	1263.22582	11.010230000000083	-44.2112	1377.18742	6.015900000000087	5.6753800000000005	1488.14108	7.264480000000091	61.4076	1584.67927	11.123740000000094	323.26958	1617.76673	-21.623189999999923	210.27279	1721.96669	15.947810000000093	133.59842	1667.5398	15.153260000000092	221.62354	1539.21949	-24.00684999999992	265.1537	1754.54336	16.96938000000009	494.94979	1746.54108	-53.68907999999992	431.78282	1716.57508	29.909250000000082	391.54438	1761.80785	-84.44963999999992	413.45135	1786.60925	-9.137359999999914	261.52146	1687.74415	208.17289000000008	242.84946	1753.6353	-189.2738799999999	309.70542	1398.24308	245.51689000000005	273.21274	1380.87642	194.83575000000005	321.45346	1463.96397	-212.03214999999994	280.1367	1443.92988	-166.34534999999994	405.67608	1141.09166	311.46479000000005	454.25732	1161.29601	285.75532000000004	265.21045	1386.89232	233.08781000000005	421.7374	1203.0668	-262.82678999999996	462.94065	1218.95786	-224.34771999999995	278.20707	1453.52127	-208.85393999999994	590.80693	1054.7124	306.07318	505.22222	1071.62503	331.78265	447.44687	1115.83623	306.58396000000005	616.97043	1149.26421	-210.89707999999996	536.94759	1147.10757	-254.08670999999998	467.87823	1179.8545	-244.55206999999993	46.25434000000001	1251.13726	175.0286800000001	460.89751	1081.7272	154.31355000000002	460.6705	1074.06544	68.04779000000005	475.6535	1123.55474	104.14320000000004	-16.288340000000012	1208.00438	-172.81527999999992	239.21722	839.6723	-162.65635999999998	264.35915	851.19331	-80.59037999999995	288.70652	874.57588	-133.93893999999997	487.79881	1024.12211	99.31913000000003	198.12747	703.97399	79.00127000000003	200.00035	713.84915	11.294000000000032	305.73266	803.63364	-130.64721999999998	170.54513	394.26857	-161.91855999999999	181.04458	391.37412	-94.32479999999998	102.15682	633.93981	4.540300000000033	260.27287	536.26654	-1.191829999999983	233.31482	526.22112	81.89572000000001	267.14008	517.25403	44.04094000000001	136.26585	608.68438	12.599340000000028	335.13112	470.71592	60.442780000000006	72.92862	321.05618	-98.80834999999999	221.16951	209.762	-113.79135	192.67911	216.79947	-196.65188	225.82332	198.35449	-161.69154	104.42697	294.55216	-111.86171999999999	288.99029	149.14896	-187.51452000000003	
709	11.8	0.0	1250.00218	7.654055843321067E-14	77.58243000000002	1367.53928	131.2147600000001	33.541489999999996	1359.99103	-154.3702999999999	17.707180000000008	1431.10352	112.37250000000009	-18.388230000000007	1424.91736	-121.68011999999992	-40.91947999999999	1183.94077	67.99104000000007	-58.96719	1180.81932	-49.03526999999992	-72.5881	1262.9988	10.839970000000083	-44.60848	1377.01716	5.448360000000087	4.82407	1488.14108	6.583440000000092	60.15902	1584.90629	10.556200000000095	322.02099	1619.07207	-20.942149999999923	208.45666	1722.81799	16.11808000000009	132.00931	1668.05059	14.869490000000093	220.71548	1540.12755	-23.950099999999917	263.22407	1755.62168	17.42341000000009	493.30393	1748.13018	-52.326989999999924	429.90995	1717.99392	30.987570000000083	390.01203	1763.22669	-83.42806999999992	411.57847	1788.08485	-8.059039999999914	259.19455	1688.59546	208.45666000000008	241.82789	1754.54336	-189.04686999999993	307.1515	1398.5836	244.09804000000005	270.94258	1381.61422	193.07639000000006	320.43189	1464.92878	-212.82670999999993	278.83136	1444.66768	-167.42367999999993	404.03022	1141.99973	309.76218000000006	452.55471	1162.37433	284.10946000000007	262.71329	1387.2896	231.49870000000007	420.60232	1203.8046	-263.45107999999993	461.86233	1219.86592	-225.08551999999995	277.01524	1454.37257	-209.76199999999994	589.04757	1055.62046	305.05161	503.4061	1072.6466	330.53406	445.6875	1116.80104	304.9948600000001	616.00562	1150.45604	-211.52136999999996	535.92602	1148.07238	-254.71099999999998	466.79991	1180.70581	-245.23311999999996	46.76512000000002	1252.95338	174.8016700000001	466.17562	1096.02916	151.64612000000002	465.55132	1088.02687	65.43712000000004	479.34249	1138.14047	101.24876000000005	-17.08289000000001	1207.09632	-172.5882699999999	233.99587	835.75628	-161.86179999999996	259.76209	847.44756	-80.02283999999996	284.05271	870.20583	-133.65516999999997	495.29031	1039.33212	96.48144000000003	219.4669	706.81168	84.39288000000003	219.35339	716.34631	16.628860000000028	298.63843	797.788	-129.85266999999996	144.94917	394.94961	-160.66996999999998	155.16486	391.71465	-93.07620999999999	127.69602	630.36432	10.612960000000031	291.65772	542.67972	7.491500000000015	264.69967	532.23703	90.52229000000001	299.31948	524.80228	53.008040000000015	163.22389	607.37904	19.239530000000023	370.0347	482.80448	70.65847	43.757169999999995	327.12883	-97.61651999999998	186.03892	208.39991	-112.59952	158.00255	216.85622	-195.5168	190.12519	196.70863	-160.55647	73.83668	299.03571	-110.72663999999999	250.73824	144.43839	-186.43619000000004	
710	11.817	0.0	1250.00218	7.654055843321067E-14	77.24191000000002	1368.27708	130.76073000000008	33.37122999999999	1359.42349	-154.82432999999992	17.25315000000001	1431.61431	111.57795000000009	-18.672000000000008	1424.34982	-122.47466999999992	-40.805969999999995	1184.11104	68.27481000000007	-58.79692	1180.47879	-48.75149999999992	-72.64485	1262.88529	10.783220000000084	-44.89225	1376.90365	4.880830000000087	4.31329	1488.19783	5.845640000000092	59.47797	1585.0198	9.875160000000093	321.45346	1619.46934	-20.71512999999992	207.60536	1723.10176	15.891060000000092	131.21476	1668.2776	14.358710000000094	220.26145	1540.41132	-24.06360999999992	262.31601	1755.96221	17.42341000000009	492.62288	1748.98149	-51.47568999999992	429.05864	1718.73172	31.611860000000082	389.44449	1763.85098	-82.97403999999992	410.67041	1788.70914	-7.491499999999916	257.88921	1688.93598	208.28640000000007	241.43061	1754.65687	-189.3306399999999	304.54083	1398.29983	242.79271000000006	268.44542	1381.72773	191.54403000000005	319.1833	1464.87203	-214.35905999999994	277.80979	1444.66768	-168.78576999999996	402.66813	1142.11323	307.5487800000001	451.07911	1162.82837	281.95282000000003	260.21612	1387.06258	230.07986000000005	419.80777	1203.74785	-264.07537999999994	461.18128	1220.03618	-225.93682999999993	275.82341	1454.20231	-211.06733999999994	587.79898	1056.24475	303.68952	501.98726	1073.15738	328.83145	444.26865	1117.14157	303.00847000000005	615.38132	1151.02358	-212.20240999999996	535.35848	1148.35615	-255.33528999999996	466.17562	1180.81932	-245.91415999999995	47.446170000000016	1254.25872	174.51790000000008	468.8998	1103.4639	148.24089000000004	467.65121	1095.06434	62.088640000000034	480.98835	1145.51846	97.55976000000004	-16.85588000000001	1206.35852	-172.47475999999992	235.69848	836.04005	-160.61321999999998	261.35119	848.07186	-78.77425999999996	285.58506	870.71662	-132.46333999999996	500.90893	1047.78844	93.47349000000004	242.62244	701.19305	90.40878000000002	240.97658	709.81963	22.53125000000003	297.67362	795.74486	-128.43381999999997	122.47466999999999	401.76007	-158.68358999999998	132.29308	398.12782	-91.03307999999998	156.12967	618.55954	16.91263000000003	325.53973	541.82842	15.607290000000015	298.80869	530.4209	98.58133000000001	334.10955	524.97254	61.35084000000001	193.01963	598.07142	25.993230000000025	407.15168	487.96907	79.79583	17.423409999999993	340.29571	-96.59494999999998	152.72444	213.62126	-111.91847	125.53937999999998	224.34772	-194.83575	156.35669	202.10024	-159.93217	45.91380999999999	310.61348	-109.76182999999999	213.84827	146.7653	-185.98216	
711	11.833	0.0	1250.00218	7.654055843321067E-14	77.07164000000002	1368.95812	130.2499400000001	33.144209999999994	1358.85595	-155.2783599999999	16.969380000000008	1432.12509	110.84015000000008	-19.012520000000006	1423.83904	-123.15571999999992	-40.69246999999999	1184.33805	68.55858000000008	-58.68342	1180.19502	-48.46773999999992	-72.64485	1262.82854	10.726470000000084	-45.11926	1376.90365	4.370040000000087	3.9727700000000006	1488.19783	5.107840000000092	59.13745	1585.07655	9.080610000000094	321.11293	1619.5261	-20.828639999999922	207.15133	1723.15852	15.380280000000093	130.81748	1668.33436	13.677660000000094	219.92093	1540.46807	-24.460879999999918	261.86198	1756.01896	17.02614000000009	492.45262	1749.54903	-51.02165999999992	428.60461	1719.129	31.83888000000008	389.33099	1764.02124	-82.91727999999992	410.15963	1789.04966	-7.377989999999915	257.09466	1689.04949	207.7756200000001	241.26035	1754.31635	-189.9549299999999	301.98691	1397.78905	241.71438000000006	265.94825	1381.61422	190.35221000000007	317.70771	1464.36124	-216.23192999999995	276.78822	1444.21365	-170.20460999999995	401.41954	1141.99973	305.33538000000004	449.71702	1162.99863	279.73942000000005	257.77571	1386.5518	228.94478000000007	419.24023	1203.23706	-264.58615999999995	460.6705	1219.97943	-226.73137999999994	274.46132	1453.46451	-212.59968999999995	586.77742	1056.86904	302.21392	500.85218	1073.55466	327.07208	443.07682	1117.31183	300.9653400000001	615.0408	1151.25059	-212.82670999999996	534.96121	1148.2994	-255.95957999999996	465.72159	1180.64905	-246.48169999999993	48.29747000000001	1255.11002	174.1206200000001	469.69435	1104.82599	144.21138000000002	467.59446	1096.02916	58.11588000000003	481.21537	1146.65354	93.24647000000004	-15.77755000000001	1205.84774	-172.41800999999992	243.07647	839.95606	-159.19437999999997	268.04814	852.38514	-77.24190999999996	292.1685	875.48394	-130.81747999999996	504.54118	1050.56937	90.23852000000004	267.14008	689.38826	96.70845000000003	264.30239	696.53924	28.660660000000025	301.53288	797.44748	-126.73120999999998	102.27032999999999	415.04045	-156.35668999999996	111.74821	411.01093	-88.70616999999997	186.43619	599.83079	23.496070000000024	360.67032	534.96121	23.382560000000012	334.50683	522.47537	106.35660000000001	370.20496	519.1269	69.29638	224.63149	582.0101	32.86044000000002	445.57399	487.45829	88.30889	-6.7537000000000065	359.93252	-95.63012999999997	120.43154	225.19903	-111.52119	94.55180999999999	238.47942	-194.49522999999996	123.66649999999998	213.96178	-159.64841	19.863829999999993	328.66119	-108.96726999999998	177.75286	155.39187	-185.98216	
